# xmcd CD database file
#
# Track frame offsets:
#	165
#	13760
#	25438
#	40587
#	56060
#	74885
#	90243
#	104864
#	116540
#	132302
#	148954
#	163885
#	175598
#	189157
#	208817
#	224404
#
# Disc length: 3193 seconds
#
# Revision: 1
# Processed by: cddbd v1.5.2PL0 Copyright (c) Steve Scherf et al.
# Submitted via: CDex 1.70beta2
#
DISCID=f60c7710
DTITLE=Jakub Safr Quartet and Shaffers Riffers - Nice work if you can get it
DYEAR=1900
DGENRE=Jazz
TTITLE0=Goody Goody
TTITLE1=Gone with what draft
TTITLE2=Things are looking up
TTITLE3=Nice work if you can get it
TTITLE4=All my life
TTITLE5=Flying home
TTITLE6=Limehouse blues
TTITLE7=How could you
TTITLE8=A shooth one
TTITLE9=Liza
TTITLE10=Stardust
TTITLE11=My blue heaven
TTITLE12=Royal garden blues
TTITLE13=I cover the waterfront
TTITLE14=Undecided
TTITLE15=But not for me
EXTD=
EXTT0=
EXTT1=
EXTT2=
EXTT3=
EXTT4=
EXTT5=
EXTT6=
EXTT7=
EXTT8=
EXTT9=
EXTT10=
EXTT11=
EXTT12=
EXTT13=
EXTT14=
EXTT15=
PLAYORDER=
